<svg width="40" height="40" viewBox="0 0 40 40" fill="none" xmlns="http://www.w3.org/2000/svg">
<path fill-rule="evenodd" clip-rule="evenodd" d="M0.5 20C0.5 9.23045 9.23045 0.5 20 0.5C30.7696 0.5 39.5 9.23045 39.5 20C39.5 30.7696 30.7696 39.5 20 39.5C9.23045 39.5 0.5 30.7696 0.5 20ZM14 12.5C13.1716 12.5 12.5 13.1716 12.5 14V26C12.5 26.8284 13.1716 27.5 14 27.5H15.5C16.3284 27.5 17 26.8284 17 26V14C17 13.1716 16.3284 12.5 15.5 12.5H14ZM24.5 12.5C23.6716 12.5 23 13.1716 23 14V26C23 26.8284 23.6716 27.5 24.5 27.5H26C26.8284 27.5 27.5 26.8284 27.5 26V14C27.5 13.1716 26.8284 12.5 26 12.5H24.5Z" fill="black"/>
</svg>
